<svg xmlns="http://www.w3.org/2000/svg" xmlns:xlink="http://www.w3.org/1999/xlink" width="500" zoomAndPan="magnify" viewBox="0 0 375 374.999991" height="500" preserveAspectRatio="xMidYMid meet" version="1.0"><defs><clipPath id="0e52d1f67d"><path d="M 36.109375 0 L 334.5 0 C 356.867188 0 375 18.132812 375 40.5 L 375 334.5 C 375 356.867188 356.867188 375 334.5 375 L 36.109375 375 C 13.742188 375 -4.390625 356.867188 -4.390625 334.5 L -4.390625 40.5 C -4.390625 18.132812 13.742188 0 36.109375 0 Z M 36.109375 0 " clip-rule="nonzero"/></clipPath></defs><g clip-path="url(#0e52d1f67d)"><rect x="-37.5" width="450" fill="#2e3b5b" y="-37.499999" height="449.999989" fill-opacity="1"/></g><path fill="#f0d687" d="M 234.074219 137.40625 C 230.609375 137.382812 227.1875 137.734375 223.800781 138.457031 C 220.414062 139.183594 217.144531 140.265625 213.996094 141.703125 C 210.847656 143.140625 207.890625 144.902344 205.125 146.988281 C 202.359375 149.074219 199.851562 151.429688 197.601562 154.0625 L 190.539062 162.195312 L 206.300781 180.402344 L 215.597656 169.675781 C 216.738281 168.34375 218.011719 167.152344 219.410156 166.097656 C 220.8125 165.042969 222.308594 164.148438 223.90625 163.421875 C 225.5 162.695312 227.15625 162.144531 228.871094 161.777344 C 230.585938 161.410156 232.320312 161.234375 234.074219 161.242188 C 234.855469 161.234375 235.636719 161.261719 236.417969 161.328125 C 237.199219 161.394531 237.976562 161.5 238.746094 161.644531 C 239.515625 161.789062 240.277344 161.96875 241.03125 162.1875 C 241.78125 162.40625 242.523438 162.664062 243.25 162.957031 C 243.976562 163.246094 244.6875 163.574219 245.382812 163.9375 C 246.078125 164.300781 246.75 164.699219 247.40625 165.128906 C 248.0625 165.558594 248.695312 166.019531 249.304688 166.511719 C 249.914062 167.003906 250.496094 167.523438 251.054688 168.074219 C 251.613281 168.625 252.140625 169.203125 252.644531 169.804688 C 253.144531 170.40625 253.613281 171.035156 254.050781 171.683594 C 254.492188 172.332031 254.894531 173 255.269531 173.691406 C 255.640625 174.382812 255.976562 175.085938 256.28125 175.808594 C 256.582031 176.53125 256.847656 177.269531 257.078125 178.019531 C 257.308594 178.769531 257.5 179.527344 257.652344 180.296875 C 257.808594 181.0625 257.921875 181.835938 258 182.617188 C 258.078125 183.398438 258.117188 184.179688 258.117188 184.960938 C 258.117188 185.746094 258.078125 186.527344 258 187.308594 C 257.921875 188.085938 257.808594 188.863281 257.652344 189.628906 C 257.5 190.398438 257.308594 191.15625 257.078125 191.90625 C 256.847656 192.65625 256.582031 193.390625 256.28125 194.113281 C 255.976562 194.835938 255.640625 195.542969 255.269531 196.234375 C 254.894531 196.921875 254.492188 197.59375 254.050781 198.242188 C 253.613281 198.890625 253.144531 199.515625 252.644531 200.121094 C 252.140625 200.722656 251.613281 201.300781 251.054688 201.851562 C 250.496094 202.398438 249.914062 202.921875 249.304688 203.414062 C 248.695312 203.90625 248.0625 204.367188 247.40625 204.796875 C 246.75 205.226562 246.078125 205.625 245.382812 205.988281 C 244.6875 206.347656 243.976562 206.675781 243.25 206.96875 C 242.523438 207.261719 241.78125 207.519531 241.03125 207.738281 C 240.277344 207.957031 239.515625 208.136719 238.746094 208.28125 C 237.976562 208.425781 237.199219 208.53125 236.417969 208.597656 C 235.636719 208.664062 234.855469 208.691406 234.074219 208.679688 C 232.324219 208.691406 230.597656 208.515625 228.886719 208.148438 C 227.175781 207.785156 225.527344 207.238281 223.9375 206.511719 C 222.347656 205.789062 220.855469 204.898438 219.457031 203.847656 C 218.0625 202.796875 216.792969 201.605469 215.65625 200.277344 C 181.136719 160.414062 197.539062 179.40625 175.609375 154.03125 C 173.355469 151.40625 170.847656 149.050781 168.082031 146.972656 C 165.316406 144.890625 162.355469 143.132812 159.207031 141.695312 C 156.058594 140.261719 152.792969 139.179688 149.40625 138.457031 C 146.023438 137.734375 142.597656 137.382812 139.136719 137.40625 C 137.574219 137.394531 136.011719 137.460938 134.453125 137.605469 C 132.898438 137.746094 131.351562 137.96875 129.8125 138.265625 C 128.277344 138.558594 126.761719 138.929688 125.261719 139.375 C 123.761719 139.824219 122.285156 140.339844 120.839844 140.933594 C 119.390625 141.523438 117.976562 142.183594 116.589844 142.914062 C 115.207031 143.644531 113.863281 144.445312 112.558594 145.308594 C 111.257812 146.171875 109.996094 147.097656 108.785156 148.085938 C 107.570312 149.070312 106.410156 150.117188 105.300781 151.21875 C 104.191406 152.320312 103.136719 153.476562 102.140625 154.683594 C 101.144531 155.890625 100.210938 157.140625 99.339844 158.441406 C 98.464844 159.738281 97.660156 161.078125 96.917969 162.453125 C 96.179688 163.832031 95.507812 165.242188 94.90625 166.6875 C 94.304688 168.132812 93.777344 169.601562 93.320312 171.097656 C 92.863281 172.59375 92.484375 174.109375 92.175781 175.644531 C 91.871094 177.179688 91.640625 178.722656 91.488281 180.28125 C 91.332031 181.835938 91.253906 183.398438 91.253906 184.960938 C 91.253906 186.527344 91.332031 188.085938 91.488281 189.644531 C 91.640625 191.199219 91.871094 192.746094 92.175781 194.28125 C 92.484375 195.8125 92.863281 197.328125 93.320312 198.824219 C 93.777344 200.324219 94.304688 201.792969 94.90625 203.238281 C 95.507812 204.679688 96.179688 206.09375 96.917969 207.46875 C 97.660156 208.847656 98.464844 210.1875 99.339844 211.484375 C 100.210938 212.785156 101.144531 214.035156 102.140625 215.242188 C 103.136719 216.449219 104.191406 217.601562 105.300781 218.707031 C 106.410156 219.808594 107.570312 220.851562 108.785156 221.839844 C 109.996094 222.828125 111.257812 223.753906 112.558594 224.617188 C 113.863281 225.480469 115.207031 226.277344 116.589844 227.007812 C 117.976562 227.742188 119.390625 228.402344 120.839844 228.992188 C 122.285156 229.585938 123.761719 230.101562 125.261719 230.546875 C 126.761719 230.996094 128.277344 231.367188 129.8125 231.660156 C 131.351562 231.957031 132.898438 232.175781 134.453125 232.320312 C 136.011719 232.464844 137.574219 232.53125 139.136719 232.519531 C 142.601562 232.542969 146.023438 232.191406 149.410156 231.464844 C 152.796875 230.742188 156.066406 229.660156 159.214844 228.222656 C 162.363281 226.78125 165.320312 225.019531 168.085938 222.9375 C 170.851562 220.851562 173.359375 218.496094 175.609375 215.863281 L 182.671875 207.726562 L 166.910156 189.523438 L 157.613281 200.25 C 156.472656 201.582031 155.199219 202.773438 153.800781 203.828125 C 152.398438 204.882812 150.902344 205.773438 149.304688 206.503906 C 147.710938 207.230469 146.054688 207.78125 144.339844 208.148438 C 142.625 208.515625 140.890625 208.691406 139.136719 208.679688 C 138.355469 208.691406 137.570312 208.664062 136.792969 208.597656 C 136.011719 208.53125 135.234375 208.425781 134.464844 208.28125 C 133.695312 208.136719 132.933594 207.957031 132.179688 207.738281 C 131.429688 207.519531 130.6875 207.261719 129.960938 206.96875 C 129.234375 206.675781 128.523438 206.347656 127.828125 205.988281 C 127.132812 205.625 126.460938 205.226562 125.804688 204.796875 C 125.148438 204.367188 124.515625 203.90625 123.90625 203.414062 C 123.296875 202.921875 122.714844 202.398438 122.15625 201.851562 C 121.597656 201.300781 121.070312 200.722656 120.566406 200.121094 C 120.066406 199.515625 119.597656 198.890625 119.160156 198.242188 C 118.71875 197.59375 118.316406 196.921875 117.941406 196.234375 C 117.570312 195.542969 117.234375 194.835938 116.929688 194.113281 C 116.628906 193.390625 116.363281 192.65625 116.132812 191.90625 C 115.902344 191.15625 115.710938 190.398438 115.558594 189.628906 C 115.402344 188.863281 115.289062 188.085938 115.210938 187.308594 C 115.132812 186.527344 115.09375 185.746094 115.09375 184.960938 C 115.09375 184.179688 115.132812 183.398438 115.210938 182.617188 C 115.289062 181.835938 115.402344 181.0625 115.558594 180.296875 C 115.710938 179.527344 115.902344 178.769531 116.132812 178.019531 C 116.363281 177.269531 116.628906 176.53125 116.929688 175.808594 C 117.234375 175.085938 117.570312 174.382812 117.941406 173.691406 C 118.316406 173 118.71875 172.332031 119.160156 171.683594 C 119.597656 171.035156 120.066406 170.40625 120.566406 169.804688 C 121.070312 169.203125 121.597656 168.625 122.15625 168.074219 C 122.714844 167.523438 123.296875 167.003906 123.90625 166.511719 C 124.515625 166.019531 125.148438 165.558594 125.804688 165.128906 C 126.460938 164.699219 127.132812 164.300781 127.828125 163.9375 C 128.523438 163.574219 129.234375 163.246094 129.960938 162.957031 C 130.6875 162.664062 131.429688 162.40625 132.179688 162.1875 C 132.933594 161.96875 133.695312 161.789062 134.464844 161.644531 C 135.234375 161.5 136.011719 161.394531 136.792969 161.328125 C 137.570312 161.261719 138.355469 161.234375 139.136719 161.242188 C 140.886719 161.230469 142.613281 161.410156 144.324219 161.773438 C 146.03125 162.140625 147.683594 162.6875 149.273438 163.410156 C 150.863281 164.136719 152.355469 165.027344 153.753906 166.078125 C 155.148438 167.128906 156.414062 168.320312 157.550781 169.648438 C 192.074219 209.511719 175.671875 190.519531 197.601562 215.890625 C 198.242188 216.65625 198.910156 217.402344 199.597656 218.125 C 200.289062 218.851562 201 219.550781 201.734375 220.230469 C 202.46875 220.910156 203.222656 221.566406 203.996094 222.195312 C 204.769531 222.828125 205.5625 223.4375 206.378906 224.019531 C 207.191406 224.601562 208.019531 225.15625 208.867188 225.683594 C 209.714844 226.214844 210.578125 226.71875 211.457031 227.195312 C 212.335938 227.667969 213.230469 228.117188 214.136719 228.535156 C 215.046875 228.957031 215.964844 229.347656 216.898438 229.707031 C 217.828125 230.070312 218.769531 230.402344 219.722656 230.703125 C 220.675781 231.007812 221.636719 231.28125 222.605469 231.523438 C 223.578125 231.765625 224.554688 231.976562 225.535156 232.15625 C 226.519531 232.339844 227.507812 232.488281 228.5 232.609375 C 229.492188 232.726562 230.488281 232.8125 231.484375 232.871094 C 232.484375 232.925781 233.484375 232.953125 234.484375 232.945312 C 235.480469 232.941406 236.480469 232.902344 237.476562 232.832031 C 238.476562 232.765625 239.46875 232.664062 240.460938 232.535156 C 241.449219 232.402344 242.4375 232.238281 243.417969 232.046875 C 244.398438 231.855469 245.371094 231.628906 246.339844 231.375 C 247.304688 231.121094 248.265625 230.835938 249.210938 230.523438 C 250.160156 230.207031 251.101562 229.863281 252.027344 229.492188 C 252.953125 229.117188 253.867188 228.714844 254.769531 228.285156 C 255.671875 227.855469 256.5625 227.394531 257.433594 226.910156 C 258.308594 226.421875 259.164062 225.910156 260.003906 225.371094 C 260.847656 224.828125 261.671875 224.261719 262.476562 223.671875 C 263.28125 223.078125 264.066406 222.460938 264.832031 221.820312 C 265.601562 221.179688 266.347656 220.515625 267.070312 219.828125 C 267.796875 219.140625 268.5 218.429688 269.179688 217.695312 C 269.859375 216.964844 270.515625 216.210938 271.152344 215.4375 C 271.785156 214.664062 272.390625 213.871094 272.976562 213.058594 C 273.558594 212.25 274.117188 211.417969 274.648438 210.574219 C 275.179688 209.726562 275.683594 208.863281 276.160156 207.984375 C 276.636719 207.105469 277.085938 206.214844 277.507812 205.308594 C 277.929688 204.402344 278.324219 203.480469 278.6875 202.550781 C 279.050781 201.621094 279.382812 200.679688 279.6875 199.726562 C 279.992188 198.773438 280.265625 197.8125 280.511719 196.84375 C 280.753906 195.875 280.96875 194.898438 281.152344 193.914062 C 281.335938 192.933594 281.488281 191.945312 281.609375 190.953125 C 281.726562 189.960938 281.816406 188.964844 281.875 187.96875 C 281.933594 186.96875 281.960938 185.972656 281.957031 184.972656 C 281.953125 183.972656 281.917969 182.972656 281.851562 181.976562 C 281.785156 180.980469 281.6875 179.984375 281.554688 178.992188 C 281.425781 178 281.265625 177.015625 281.074219 176.035156 C 280.882812 175.054688 280.660156 174.078125 280.410156 173.113281 C 280.15625 172.144531 279.875 171.1875 279.5625 170.238281 C 279.25 169.289062 278.90625 168.347656 278.535156 167.421875 C 278.164062 166.492188 277.765625 165.578125 277.335938 164.675781 C 276.90625 163.769531 276.449219 162.882812 275.964844 162.007812 C 275.480469 161.132812 274.96875 160.277344 274.429688 159.433594 C 273.890625 158.59375 273.324219 157.769531 272.734375 156.960938 C 272.144531 156.15625 271.53125 155.367188 270.890625 154.597656 C 270.25 153.832031 269.585938 153.082031 268.898438 152.359375 C 268.214844 151.632812 267.503906 150.925781 266.773438 150.246094 C 266.042969 149.5625 265.289062 148.90625 264.519531 148.269531 C 263.746094 147.636719 262.953125 147.027344 262.144531 146.441406 C 261.332031 145.855469 260.503906 145.296875 259.660156 144.761719 C 258.8125 144.230469 257.953125 143.722656 257.074219 143.246094 C 256.199219 142.765625 255.304688 142.316406 254.402344 141.894531 C 253.496094 141.46875 252.578125 141.074219 251.644531 140.710938 C 250.714844 140.34375 249.773438 140.007812 248.824219 139.703125 C 247.871094 139.398438 246.910156 139.121094 245.941406 138.875 C 244.972656 138.628906 243.996094 138.414062 243.015625 138.226562 C 242.03125 138.042969 241.046875 137.890625 240.054688 137.765625 C 239.0625 137.644531 238.066406 137.554688 237.070312 137.492188 C 236.070312 137.433594 235.074219 137.402344 234.074219 137.40625 Z M 234.074219 137.40625 " fill-opacity="1" fill-rule="nonzero"/></svg>